<svg width="227" height="93" viewBox="0 0 227 93" fill="none" xmlns="http://www.w3.org/2000/svg">
<g clip-path="url(#clip0_1_426)">
<path d="M201.114 21.0129C206.84 21.0129 211.484 16.309 211.484 10.5065C211.484 4.70391 206.84 0 201.114 0C195.385 0 190.742 4.70391 190.742 10.5065C190.742 16.309 195.385 21.0129 201.114 21.0129Z" fill="#FFB215"/>
<path d="M216.929 38.34C212.076 30.6224 204.549 25.2815 195.731 23.2985C186.911 21.318 177.86 22.9321 170.242 27.8494C162.624 32.7646 157.352 40.3912 155.394 49.3245C154.466 53.5612 157.104 57.757 161.287 58.6972L192.159 65.634C196.343 66.5719 200.483 63.9015 201.411 59.6647C202.339 55.428 199.702 51.2323 195.519 50.292L173.902 45.4339C178.105 39.9176 185.224 37.0333 192.371 38.6405C197.144 39.7129 201.217 42.604 203.844 46.7815C206.472 50.9591 207.334 55.9221 206.276 60.7576C204.407 69.2924 196.976 75.1433 188.699 75.2776L183.585 81.001L181.967 74.0779C178.507 72.762 175.508 70.4331 173.373 67.3164C170.931 63.7513 166.098 62.8656 162.579 65.3381C159.06 67.8127 158.185 72.7074 160.626 76.2725C165.487 83.3731 172.752 88.3135 181.083 90.1848C182.94 90.6014 184.811 90.8608 186.676 90.9611C193.654 91.339 200.56 89.5132 206.572 85.6339C214.19 80.7187 219.461 73.0921 221.418 64.1588C223.376 55.2278 221.781 46.0598 216.929 38.34Z" fill="#EDE7F8"/>
<path d="M226.738 83.5148L217.181 77.9668C216.832 77.7642 216.409 78.0693 216.486 78.4677L218.556 89.4295C218.628 89.8074 219.085 89.9462 219.35 89.673L221.477 87.4783L223.845 90.8432C224.136 91.2553 224.7 91.3509 225.106 91.0572L226.124 90.3218C226.531 90.0282 226.626 89.4567 226.336 89.0446L223.967 85.6799L226.708 84.3573C227.048 84.191 227.065 83.7061 226.738 83.5148Z" fill="#00A99D"/>
<path d="M137.922 22.6249C139.838 22.6249 141.391 21.051 141.391 19.1098C141.391 17.1685 139.838 15.5947 137.922 15.5947C136.005 15.5947 134.452 17.1685 134.452 19.1098C134.452 21.051 136.005 22.6249 137.922 22.6249Z" fill="#FFB215"/>
<path d="M80.3012 22.6249C82.2176 22.6249 83.771 21.051 83.771 19.1098C83.771 17.1685 82.2176 15.5947 80.3012 15.5947C78.3851 15.5947 76.8315 17.1685 76.8315 19.1098C76.8315 21.051 78.3851 22.6249 80.3012 22.6249Z" fill="#FFB215"/>
<path d="M9.48118 52.6443C11.3975 52.6443 12.9509 51.0705 12.9509 49.1292C12.9509 47.1879 11.3975 45.6141 9.48118 45.6141C7.56488 45.6141 6.01141 47.1879 6.01141 49.1292C6.01141 51.0705 7.56488 52.6443 9.48118 52.6443Z" fill="#FFB215"/>
<path d="M17.1422 52.6443C19.0585 52.6443 20.6119 51.0705 20.6119 49.1292C20.6119 47.1879 19.0585 45.6141 17.1422 45.6141C15.2259 45.6141 13.6724 47.1879 13.6724 49.1292C13.6724 51.0705 15.2259 52.6443 17.1422 52.6443Z" fill="#FFB215"/>
<path d="M0.176025 24.3481H4.11095C6.10427 24.3481 7.72229 25.9827 7.72454 28.0043L7.73578 33.8687C7.97623 36.1204 9.92908 37.245 13.5943 37.245H14.3674C18.044 37.245 20.0012 36.1204 20.2417 33.8687C20.2417 33.8119 20.2484 33.7754 20.2597 33.7641C20.2709 33.7186 20.2776 33.5319 20.2776 33.2062V25.2701H27.6127V25.3043H28.2823C28.6599 25.3043 28.8779 25.3111 28.9341 25.3226C30.6645 25.4272 32.2106 25.8961 33.5724 26.7318C35.1072 27.6834 36.35 29.0811 37.3006 30.9252C37.7477 31.8062 38.0737 32.9149 38.2804 34.249V37.2609H41.0468V44.7098H30.7904V37.4863C30.5161 35.014 29.5183 33.7732 27.8015 33.7619V34.6315C27.8015 35.014 27.7948 35.2348 27.7834 35.294C27.6913 37.047 27.2285 38.6133 26.3924 39.9929C25.453 41.5477 24.0733 42.8067 22.253 43.7697C21.3834 44.2227 20.2889 44.5529 18.972 44.7623H9.00771C7.69083 44.5529 6.59642 44.2227 5.72673 43.7697C3.90645 42.8067 2.52441 41.5477 1.5873 39.9929C0.751322 38.6133 0.288389 37.0446 0.196252 35.294C0.185015 35.2348 0.178272 35.0162 0.178272 34.6315V24.3481H0.176025Z" fill="#EDE7F8"/>
<path d="M39.6382 44.7097V37.2607H42.335V29.3314C42.335 27.3097 43.9531 25.6706 45.9486 25.6706H49.6858V37.2607H52.4679V28.9306C52.4679 26.909 54.0859 25.2698 56.0814 25.2698H59.8187V37.2607H60.3848C61.8276 37.2492 62.6592 36.8713 62.8772 36.1292C63.0591 35.7012 63.1512 34.7883 63.1512 33.3973V28.6528C63.1512 26.6313 64.7693 24.9922 66.7649 24.9922H70.5716V37.2607H72.6504V44.7097H39.6382Z" fill="#EDE7F8"/>
<path d="M71.2471 44.7097V37.2607H73.2921C74.7349 37.2492 75.5596 36.8713 75.7664 36.1292C75.9485 35.7012 76.0407 34.7883 76.0407 33.3973V28.6528C76.0407 26.6313 77.6585 24.9922 79.6541 24.9922H83.4611V36.8622C83.4611 37.5703 83.443 38.0871 83.4093 38.4104C83.3621 38.8634 83.306 39.2687 83.2386 39.6283C83.1576 39.988 83.0543 40.318 82.9284 40.6209C82.7801 40.9805 82.6295 41.2766 82.4811 41.5088C81.8407 42.5309 80.9979 43.3118 79.9552 43.8581C78.9014 44.4273 77.717 44.7119 76.4002 44.7119H71.2471V44.7097Z" fill="#EDE7F8"/>
<path d="M96.4164 48.2247C98.5804 47.7831 99.8007 46.613 100.075 44.7097H90.7466L87.3623 37.3314H87.3105C86.6229 35.8106 86.279 34.176 86.279 32.423C86.279 30.8226 86.5307 29.3427 87.0363 27.9859C87.5397 26.6291 88.3128 25.4338 89.3555 24.4003C90.3624 23.344 91.5196 22.5562 92.8253 22.0325C94.0972 21.5112 95.5288 21.2495 97.1198 21.2495C99.2052 21.2495 101.048 21.714 102.653 22.6428C104.244 23.5716 105.567 24.974 106.621 26.8545C106.976 27.5146 107.25 28.1771 107.446 28.8373L107.428 37.2607H111.086V44.7097H107.239C107.066 49.1764 104.502 52.1588 99.5423 53.6544L96.4164 48.2247ZM100.093 30.0212L100.008 29.9347C99.2861 29.238 98.3242 28.8897 97.1219 28.8897C95.886 28.8897 94.895 29.2608 94.1511 30.003C93.3961 30.7679 93.0162 31.7605 93.0162 32.9785C93.0162 34.4878 93.6343 35.9085 94.8725 37.2424L100.095 37.2607V30.0212H100.093Z" fill="#EDE7F8"/>
<path d="M122.325 22.381V37.2609H124.437V44.7098H109.679V37.2609H112.135C113.578 37.2494 114.41 36.8715 114.628 36.1293C114.81 35.7014 114.902 34.7884 114.902 33.3975V20.0043C114.902 17.9827 116.52 16.3435 118.516 16.3435H122.803V22.3834H122.325V22.381Z" fill="#EDE7F8"/>
<path d="M126.344 37.2606C126.047 36.2519 125.897 35.2252 125.897 34.1802C125.897 31.314 126.932 28.8599 129.007 26.8178C131.137 24.7187 133.771 23.667 136.908 23.667C138.51 23.667 139.96 23.9287 141.254 24.4501C142.594 24.9966 143.78 25.7842 144.811 26.8178C145.854 27.8513 146.632 28.9463 147.149 30.1075C147.663 31.2548 147.922 32.6139 147.922 34.1802C147.922 35.6873 147.659 37.0397 147.131 38.2348C146.591 39.396 145.807 40.5024 144.778 41.5587C143.771 42.5582 142.578 43.3275 141.205 43.874C139.899 44.4317 138.467 44.7095 136.91 44.7095H123.029V37.2606H126.344ZM139.418 36.8256C140.047 36.2565 140.362 35.3755 140.362 34.1802C140.362 32.9851 140.047 32.0972 139.418 31.5167C138.789 30.9247 137.951 30.6288 136.91 30.6288C135.879 30.6288 135.043 30.9247 134.402 31.5167C133.748 32.1085 133.422 32.9964 133.422 34.1802C133.422 35.3755 133.748 36.2565 134.402 36.8256C135.031 37.4061 135.868 37.6953 136.91 37.6953C137.962 37.6953 138.798 37.4061 139.418 36.8256Z" fill="#EDE7F8"/>
<path d="M18.2612 58.7792C18.2612 59.7126 17.9577 60.5185 17.3555 61.1947C16.6229 62.0006 15.6543 62.4035 14.4476 62.4035H6.67433V67.8628H16.5937V70.2282C16.5937 71.2913 16.2274 72.1609 15.497 72.8371C14.8611 73.4154 14.1127 73.7067 13.2565 73.7067H6.91479V85.5428H3.95741C1.31914 85.5428 0 84.2382 0 81.6293V61.3381C0 59.4052 0.413496 58.0848 1.24048 57.3768C2.00231 56.7006 3.35514 56.3614 5.29452 56.3614H18.2657V58.7792H18.2612Z" fill="#00A99D"/>
<path d="M33.0425 81.9661C33.0425 84.4773 31.6762 85.734 28.9413 85.734C24.204 85.734 21.8354 83.3664 21.8354 78.6334V56.605H23.9343C26.7952 56.605 28.2266 57.9914 28.2266 60.7598V78.1029C28.2266 79.4893 29.148 80.1814 30.993 80.1814H33.0425V81.9661Z" fill="#00A99D"/>
<path d="M55.1218 75.6398C55.1218 82.5309 51.9262 85.9777 45.5374 85.9777C42.7394 85.9777 40.4652 85.108 38.7192 83.3687C36.8428 81.5338 35.9055 79.0524 35.9055 75.9287V63.5122H37.5281C40.7395 63.5122 42.344 64.9625 42.344 67.8606V75.4462C42.344 78.5378 43.4879 80.0837 45.7777 80.0837C47.6857 80.0837 48.6386 78.6516 48.6386 75.7832V63.5122H50.261C53.5037 63.5122 55.1241 64.9625 55.1241 67.8606V75.6398H55.1218Z" fill="#00A99D"/>
<path d="M77.1997 76.1701C75.6424 77.0077 73.0356 77.4267 69.3792 77.4267H66.9478C67.5837 79.3594 69.1883 80.3248 71.7635 80.3248C74.1479 80.3248 76.5165 79.6645 78.8695 78.3441V80.664C78.8695 84.2063 76.1817 85.9775 70.8108 85.9775C67.9815 85.9775 65.5342 84.9804 63.4667 82.9837C61.2419 80.8574 60.1273 78.1689 60.1273 74.9156C60.1273 71.3413 61.1296 68.4592 63.1319 66.2691C65.0714 64.1132 67.6151 63.0319 70.7614 63.0319C73.1457 63.0319 75.1951 63.8217 76.9121 65.3995C78.7233 67.0408 79.6289 69.1513 79.6289 71.7284C79.6334 73.8501 78.8222 75.3322 77.1997 76.1701ZM70.3344 68.6822C69.3163 68.6822 68.4737 69.0692 67.8062 69.841C67.1388 70.5491 66.7725 71.4188 66.7096 72.4501H68.2826C70.3478 72.4501 71.7479 72.3385 72.4783 72.1131C73.1457 71.9538 73.4806 71.6146 73.4806 71.0977C73.4806 69.4883 72.4334 68.6822 70.3344 68.6822Z" fill="#00A99D"/>
<path d="M101.761 85.5428C100.458 85.5428 99.3923 85.1557 98.5652 84.384C97.7697 83.644 97.372 82.6765 97.372 81.4858V73.2718C97.372 70.4056 96.2281 68.9713 93.9383 68.9713C93.0483 68.9713 92.3314 69.3105 91.7921 69.9867C91.2191 70.7289 90.9337 71.7101 90.9337 72.935V85.5428H88.7403C87.4998 85.5428 86.4818 85.1557 85.6885 84.384C84.9267 83.6099 84.5446 82.6445 84.5446 81.4858V72.548C84.5446 69.973 85.338 67.7989 86.929 66.0254C88.7089 64.029 91.1899 63.0319 94.3674 63.0319C97.0372 63.0319 99.2619 63.8854 101.044 65.5929C102.887 67.3959 103.81 69.8114 103.81 72.8393V85.545H101.761V85.5428Z" fill="#00A99D"/>
<path d="M126.795 71.5801C124.505 70.1298 122.374 69.4059 120.403 69.4059C119.1 69.4059 117.972 69.8726 117.017 70.806C116.03 71.7394 115.538 72.8664 115.538 74.189C115.538 75.8645 115.983 77.2169 116.873 78.2458C117.763 79.2771 118.954 79.7916 120.451 79.7916C121.626 79.7916 122.772 79.5982 123.884 79.2133C124.329 79.0517 124.806 78.8446 125.316 78.585L126.7 77.909V80.9528C126.7 82.4349 126.096 83.6278 124.889 84.527C123.648 85.4604 122.01 85.9271 119.976 85.9271C116.956 85.9271 114.365 84.8821 112.203 82.7876C110.01 80.6613 108.913 78.0365 108.913 74.9129C108.913 71.6597 109.931 68.9551 111.965 66.7968C114.127 64.4771 116.988 63.3183 120.55 63.3183C122.329 63.3183 123.824 63.8191 125.033 64.8163C126.208 65.8158 126.797 67.0383 126.797 68.4884V71.5801H126.795Z" fill="#00A99D"/>
<path d="M138.906 89.9868C137.571 91.5007 135.87 92.2565 133.803 92.2565C132.659 92.2565 131.672 91.9014 130.845 91.1933C129.987 90.4511 129.558 89.5018 129.558 88.3431V86.7494L133.086 86.5081C133.816 86.4422 134.358 86.235 134.708 85.8798C135.057 85.4927 135.47 84.7051 135.949 83.5121C134.58 81.388 133.119 78.1667 131.562 73.8503C130.036 69.5998 129.081 66.1531 128.701 63.5122H132.182C133.072 63.5122 133.852 63.7855 134.52 64.3342C135.25 64.8805 135.679 65.5909 135.807 66.4581C136.569 70.4194 137.681 73.8981 139.144 76.8941C140.861 72.5777 141.989 68.1178 142.531 63.5122H145.344C147.378 63.5122 148.396 64.5435 148.396 66.6039C148.396 67.601 147.76 69.9527 146.488 73.6568C146.012 75.0091 145.502 76.4115 144.963 77.8594C144.518 79.1161 144.151 80.0654 143.866 80.7096C141.926 85.3493 140.272 88.441 138.906 89.9868Z" fill="#00A99D"/>
</g>
<defs>
<clipPath id="clip0_1_426">
<rect width="227" height="93" fill="white"/>
</clipPath>
</defs>
</svg>
