<svg width="16" height="16" viewBox="0 0 16 16" fill="none" xmlns="http://www.w3.org/2000/svg">
<path opacity="0.5" d="M2.18301 10.1973C1.61634 9.46132 1.33301 9.09266 1.33301 7.99999C1.33301 6.90666 1.61634 6.53932 2.18301 5.80266C3.31434 4.33332 5.21167 2.66666 7.99967 2.66666C10.7877 2.66666 12.685 4.33332 13.8163 5.80266C14.383 6.53999 14.6663 6.90732 14.6663 7.99999C14.6663 9.09332 14.383 9.46066 13.8163 10.1973C12.685 11.6667 10.7877 13.3333 7.99967 13.3333C5.21167 13.3333 3.31434 11.6667 2.18301 10.1973Z" stroke="#662D91"/>
<path d="M10 8C10 8.53043 9.78929 9.03914 9.41421 9.41421C9.03914 9.78929 8.53043 10 8 10C7.46957 10 6.96086 9.78929 6.58579 9.41421C6.21071 9.03914 6 8.53043 6 8C6 7.46957 6.21071 6.96086 6.58579 6.58579C6.96086 6.21071 7.46957 6 8 6C8.53043 6 9.03914 6.21071 9.41421 6.58579C9.78929 6.96086 10 7.46957 10 8Z" stroke="#662D91"/>
</svg>
