<svg width="72" height="72" viewBox="0 0 72 72" fill="none" xmlns="http://www.w3.org/2000/svg">
<path d="M23.1609 63.0833L21.7232 65.7164C22.0993 65.9217 22.4896 66.1 22.8912 66.2498C22.8912 66.2498 22.8912 66.2498 22.8913 66.2498L26.0976 67.4457C26.4991 67.5954 26.9109 67.7163 27.3297 67.8074L30.6735 68.5349C31.0923 68.626 31.5171 68.687 31.9446 68.7176L35.3579 68.9617L35.572 65.9694L35.358 68.9617C35.7854 68.9923 36.2146 68.9923 36.642 68.9617L36.428 65.9694L36.6421 68.9617L40.0554 68.7176C40.4829 68.687 40.9077 68.626 41.3265 68.5349L44.6703 67.8074C45.0891 67.7163 45.5009 67.5954 45.9024 67.4457L44.8541 64.6348L45.9024 67.4457L49.1087 66.2498C49.5103 66.1 49.9007 65.9217 50.2768 65.7164L48.8391 63.0833L50.2768 65.7163L53.2803 64.0763C53.6565 63.8709 54.0175 63.6389 54.3606 63.3821L57.1001 61.3313L55.3023 58.9297L57.1001 61.3313C57.4432 61.0744 57.7675 60.7934 58.0706 60.4904L60.4904 58.0706C60.7934 57.7675 61.0744 57.4432 61.3313 57.1001L58.9297 55.3023L61.3313 57.1001L63.3821 54.3606C63.6389 54.0175 63.8709 53.6565 64.0763 53.2803L65.7163 50.2768L63.0833 48.8391L65.7164 50.2768C65.9217 49.9007 66.1 49.5103 66.2498 49.1088L67.4457 45.9024L64.6348 44.8541L67.4457 45.9024C67.5954 45.5009 67.7163 45.0891 67.8074 44.6703L68.5349 41.3265C68.626 40.9077 68.687 40.4829 68.7176 40.0554L68.9617 36.6421L65.9694 36.428L68.9617 36.642C68.9923 36.2146 68.9923 35.7854 68.9617 35.358L65.9694 35.572L68.9617 35.3579L68.7176 31.9446C68.687 31.5171 68.626 31.0923 68.5349 30.6735L67.8074 27.3297C67.7163 26.9109 67.5954 26.4991 67.4457 26.0976L66.2498 22.8913C66.2498 22.8912 66.2498 22.8912 66.2498 22.8912C66.1 22.4896 65.9217 22.0993 65.7164 21.7232L63.0833 23.1609L65.7163 21.7232L64.0763 18.7197C63.8709 18.3435 63.6389 17.9825 63.3821 17.6394L60.9804 19.4372L63.3821 17.6394L61.3313 14.8999C61.0744 14.5568 60.7934 14.2325 60.4904 13.9294L58.0706 11.5096C57.7675 11.2066 57.4432 10.9256 57.1001 10.6687L54.3606 8.61794L52.5628 11.0196L54.3606 8.61793C54.0175 8.3611 53.6565 8.1291 53.2803 7.9237L50.2768 6.28366L48.8391 8.9167L50.2768 6.28366C49.9007 6.07827 49.5103 5.9 49.1088 5.75023L48.0674 8.54222L49.1088 5.75023L45.9024 4.55433C45.5009 4.40455 45.0891 4.28365 44.6704 4.19255L41.3265 3.46513C40.9077 3.37403 40.4829 3.31296 40.0554 3.28239L36.6421 3.03826C36.2146 3.00768 35.7854 3.00768 35.3579 3.03826L31.9446 3.28239C31.5171 3.31296 31.0923 3.37403 30.6735 3.46513L27.3297 4.19255C26.9109 4.28365 26.4991 4.40455 26.0976 4.55433L22.8912 5.75023C22.4897 5.9 22.0993 6.07826 21.7232 6.28366L18.7197 7.9237C18.3435 8.12909 17.9825 8.3611 17.6394 8.61794L14.8999 10.6687C14.5568 10.9256 14.2325 11.2066 13.9294 11.5096C13.9294 11.5096 13.9294 11.5096 13.9294 11.5096L11.5096 13.9294L11.5096 13.9294C11.2066 14.2325 10.9256 14.5568 10.6687 14.8999L8.61794 17.6394C8.3611 17.9825 8.12909 18.3435 7.9237 18.7197L6.28366 21.7232C6.07827 22.0993 5.9 22.4897 5.75023 22.8912L4.55433 26.0976C4.40455 26.4991 4.28365 26.9109 4.19255 27.3297L3.46513 30.6735C3.37403 31.0923 3.31296 31.5171 3.28239 31.9446L3.03826 35.3579C3.00768 35.7854 3.00768 36.2146 3.03826 36.6421L3.28239 40.0554C3.31296 40.4829 3.37403 40.9077 3.46513 41.3265L4.19255 44.6703L7.12399 44.0327L4.19255 44.6704C4.28365 45.0891 4.40455 45.5009 4.55433 45.9024L5.75023 49.1088C5.9 49.5103 6.07826 49.9007 6.28366 50.2768L8.90751 48.8441L6.28366 50.2768L7.9237 53.2803C8.1291 53.6565 8.3611 54.0175 8.61793 54.3606L11.0196 52.5628L8.61794 54.3606L10.6687 57.1001C10.9256 57.4432 11.2066 57.7675 11.5096 58.0706L13.6131 55.9671L11.5096 58.0706L13.9294 60.4904C14.2325 60.7934 14.5568 61.0744 14.8999 61.3313L17.6394 63.3821L19.4372 60.9804L17.6394 63.3821C17.9825 63.6389 18.3435 63.8709 18.7197 64.0763L20.1574 61.4433L18.7197 64.0763L21.7232 65.7163L23.1609 63.0833Z" fill="url(#paint0_linear_168_93)" stroke="#EFF1F9" stroke-width="6"/>
<path d="M36 28V44" stroke="white" stroke-width="2.13333" stroke-linecap="round" stroke-linejoin="round"/>
<path d="M44 36L28 36" stroke="white" stroke-width="2.13333" stroke-linecap="round" stroke-linejoin="round"/>
<defs>
<linearGradient id="paint0_linear_168_93" x1="6" y1="36" x2="66" y2="36" gradientUnits="userSpaceOnUse">
<stop stop-color="#662D91"/>
<stop offset="1" stop-color="#905EB6"/>
</linearGradient>
</defs>
</svg>
