<svg width="16" height="16" viewBox="0 0 16 16" fill="none" xmlns="http://www.w3.org/2000/svg">
<path d="M11.3333 9.33333C11.5101 9.33333 11.6797 9.2631 11.8047 9.13807C11.9298 9.01305 12 8.84348 12 8.66667C12 8.48986 11.9298 8.32029 11.8047 8.19526C11.6797 8.07024 11.5101 8 11.3333 8C11.1565 8 10.987 8.07024 10.8619 8.19526C10.7369 8.32029 10.6667 8.48986 10.6667 8.66667C10.6667 8.84348 10.7369 9.01305 10.8619 9.13807C10.987 9.2631 11.1565 9.33333 11.3333 9.33333ZM11.3333 12C11.5101 12 11.6797 11.9298 11.8047 11.8047C11.9298 11.6797 12 11.5101 12 11.3333C12 11.1565 11.9298 10.987 11.8047 10.8619C11.6797 10.7369 11.5101 10.6667 11.3333 10.6667C11.1565 10.6667 10.987 10.7369 10.8619 10.8619C10.7369 10.987 10.6667 11.1565 10.6667 11.3333C10.6667 11.5101 10.7369 11.6797 10.8619 11.8047C10.987 11.9298 11.1565 12 11.3333 12ZM8.66667 8.66667C8.66667 8.84348 8.59643 9.01305 8.4714 9.13807C8.34638 9.2631 8.17681 9.33333 8 9.33333C7.82319 9.33333 7.65362 9.2631 7.5286 9.13807C7.40357 9.01305 7.33333 8.84348 7.33333 8.66667C7.33333 8.48986 7.40357 8.32029 7.5286 8.19526C7.65362 8.07024 7.82319 8 8 8C8.17681 8 8.34638 8.07024 8.4714 8.19526C8.59643 8.32029 8.66667 8.48986 8.66667 8.66667ZM8.66667 11.3333C8.66667 11.5101 8.59643 11.6797 8.4714 11.8047C8.34638 11.9298 8.17681 12 8 12C7.82319 12 7.65362 11.9298 7.5286 11.8047C7.40357 11.6797 7.33333 11.5101 7.33333 11.3333C7.33333 11.1565 7.40357 10.987 7.5286 10.8619C7.65362 10.7369 7.82319 10.6667 8 10.6667C8.17681 10.6667 8.34638 10.7369 8.4714 10.8619C8.59643 10.987 8.66667 11.1565 8.66667 11.3333ZM4.66667 9.33333C4.84348 9.33333 5.01305 9.2631 5.13807 9.13807C5.2631 9.01305 5.33333 8.84348 5.33333 8.66667C5.33333 8.48986 5.2631 8.32029 5.13807 8.19526C5.01305 8.07024 4.84348 8 4.66667 8C4.48986 8 4.32029 8.07024 4.19526 8.19526C4.07024 8.32029 4 8.48986 4 8.66667C4 8.84348 4.07024 9.01305 4.19526 9.13807C4.32029 9.2631 4.48986 9.33333 4.66667 9.33333ZM4.66667 12C4.84348 12 5.01305 11.9298 5.13807 11.8047C5.2631 11.6797 5.33333 11.5101 5.33333 11.3333C5.33333 11.1565 5.2631 10.987 5.13807 10.8619C5.01305 10.7369 4.84348 10.6667 4.66667 10.6667C4.48986 10.6667 4.32029 10.7369 4.19526 10.8619C4.07024 10.987 4 11.1565 4 11.3333C4 11.5101 4.07024 11.6797 4.19526 11.8047C4.32029 11.9298 4.48986 12 4.66667 12Z" fill="#662D91"/>
<path fill-rule="evenodd" clip-rule="evenodd" d="M4.63345 0.799942C4.76606 0.799942 4.89323 0.85262 4.987 0.946389C5.08077 1.04016 5.13345 1.16733 5.13345 1.29994V1.80861C5.57478 1.79994 6.06078 1.79994 6.59545 1.79994H9.33745C9.87278 1.79994 10.3588 1.79994 10.8001 1.80861V1.29994C10.8001 1.16733 10.8528 1.04016 10.9466 0.946389C11.0403 0.85262 11.1675 0.799942 11.3001 0.799942C11.4327 0.799942 11.5599 0.85262 11.6537 0.946389C11.7474 1.04016 11.8001 1.16733 11.8001 1.29994V1.85128C11.9734 1.86461 12.1377 1.8815 12.2928 1.90194C13.0741 2.00728 13.7068 2.22861 14.2061 2.72728C14.7048 3.22661 14.9261 3.85928 15.0314 4.64061C15.1334 5.40061 15.1334 6.37061 15.1334 7.59594V9.00394C15.1334 10.2293 15.1334 11.1999 15.0314 11.9593C14.9261 12.7406 14.7048 13.3733 14.2061 13.8726C13.7068 14.3713 13.0741 14.5926 12.2928 14.6979C11.5328 14.7999 10.5628 14.7999 9.33745 14.7999H6.59678C5.37145 14.7999 4.40078 14.7999 3.64145 14.6979C2.86011 14.5926 2.22745 14.3713 1.72811 13.8726C1.22945 13.3733 1.00811 12.7406 0.902781 11.9593C0.800781 11.1993 0.800781 10.2293 0.800781 9.00394V7.59594C0.800781 6.37061 0.800781 5.39994 0.902781 4.64061C1.00811 3.85928 1.22945 3.22661 1.72811 2.72728C2.22745 2.22861 2.86011 2.00728 3.64145 1.90194C3.797 1.8815 3.96123 1.86461 4.13411 1.85128V1.29994C4.13411 1.16745 4.1867 1.04037 4.28033 0.946624C4.37395 0.852875 4.50096 0.800119 4.63345 0.799942ZM3.77345 2.89328C3.10345 2.98328 2.71678 3.15261 2.43478 3.43461C2.15278 3.71661 1.98345 4.10328 1.89345 4.77328C1.87834 4.88661 1.86545 5.00639 1.85478 5.13261H14.0788C14.0681 5.00639 14.0552 4.88639 14.0401 4.77261C13.9501 4.10261 13.7808 3.71594 13.4988 3.43394C13.2168 3.15194 12.8301 2.98261 12.1594 2.89261C11.4748 2.80061 10.5714 2.79928 9.30011 2.79928H6.63345C5.36211 2.79928 4.45945 2.80128 3.77345 2.89328ZM1.80011 7.63328C1.80011 7.06394 1.80011 6.56861 1.80878 6.13328H14.1248C14.1334 6.56861 14.1334 7.06394 14.1334 7.63328V8.96661C14.1334 10.2379 14.1321 11.1413 14.0401 11.8266C13.9501 12.4966 13.7808 12.8833 13.4988 13.1653C13.2168 13.4473 12.8301 13.6166 12.1594 13.7066C11.4748 13.7986 10.5714 13.7999 9.30011 13.7999H6.63345C5.36211 13.7999 4.45945 13.7986 3.77345 13.7066C3.10345 13.6166 2.71678 13.4473 2.43478 13.1653C2.15278 12.8833 1.98345 12.4966 1.89345 11.8259C1.80145 11.1413 1.80011 10.2379 1.80011 8.96661V7.63328Z" fill="#662D91"/>
</svg>
