<svg width="76" height="72" viewBox="0 0 76 72" fill="none" xmlns="http://www.w3.org/2000/svg">
<g filter="url(#filter0_d_2404_4281)">
<circle cx="36" cy="36" r="24" fill="white"/>
</g>
<path d="M45.6088 37.062L45.8388 34.626C46.0188 32.714 46.1088 31.757 45.7808 31.362C45.6981 31.2593 45.5958 31.1741 45.48 31.1111C45.3641 31.0481 45.237 31.0086 45.1058 30.995C44.6298 30.953 44.0328 31.633 42.8378 32.993C42.2198 33.697 41.9108 34.048 41.5668 34.103C41.3747 34.1332 41.1779 34.1016 41.0048 34.013C40.6858 33.853 40.4748 33.418 40.0498 32.549L37.8128 27.965C37.0108 26.322 36.6098 25.5 35.9998 25.5C35.3898 25.5 34.9888 26.322 34.1868 27.965L31.9498 32.549C31.5258 33.419 31.3138 33.853 30.9948 34.013C30.8215 34.101 30.625 34.1325 30.4328 34.103C30.0888 34.048 29.7798 33.697 29.1618 32.993C27.9668 31.633 27.3698 30.953 26.8938 30.995C26.7627 31.0086 26.6355 31.0481 26.5197 31.1111C26.4038 31.1741 26.3016 31.2593 26.2188 31.362C25.8918 31.757 25.9818 32.714 26.1618 34.626L26.3908 37.062C26.7688 41.074 26.9568 43.081 28.1408 44.29C29.3218 45.5 31.0938 45.5 34.6398 45.5H37.3588C40.9038 45.5 42.6758 45.5 43.8588 44.29C45.0418 43.08 45.2308 41.074 45.6088 37.062Z" stroke="#662D91" stroke-width="1.5"/>
<path opacity="0.5" d="M35.1463 36.023C35.5263 35.341 35.7163 35 36.0003 35C36.2843 35 36.4743 35.34 36.8543 36.023L36.9523 36.199C37.0603 36.393 37.1143 36.489 37.1983 36.553C37.2833 36.617 37.3883 36.641 37.5983 36.688L37.7883 36.732C38.5263 36.899 38.8953 36.982 38.9833 37.264C39.0713 37.546 38.8193 37.841 38.3163 38.429L38.1863 38.581C38.0433 38.748 37.9713 38.831 37.9393 38.935C37.9073 39.039 37.9183 39.15 37.9393 39.373L37.9593 39.576C38.0353 40.361 38.0733 40.754 37.8443 40.928C37.6143 41.102 37.2683 40.943 36.5773 40.625L36.3993 40.543C36.2023 40.453 36.1043 40.407 36.0003 40.407C35.8963 40.407 35.7983 40.453 35.6013 40.543L35.4233 40.625C34.7323 40.944 34.3863 41.102 34.1563 40.928C33.9263 40.754 33.9653 40.361 34.0413 39.576L34.0613 39.373C34.0823 39.15 34.0933 39.039 34.0613 38.935C34.0293 38.831 33.9573 38.748 33.8143 38.581L33.6843 38.429C33.1813 37.841 32.9293 37.547 33.0173 37.264C33.1053 36.982 33.4743 36.899 34.2123 36.732L34.4023 36.688C34.6123 36.641 34.7173 36.618 34.8023 36.553C34.8863 36.489 34.9403 36.393 35.0483 36.199L35.1463 36.023Z" stroke="#662D91" stroke-width="1.5"/>
<defs>
<filter id="filter0_d_2404_4281" x="-4" y="0" width="80" height="80" filterUnits="userSpaceOnUse" color-interpolation-filters="sRGB">
<feFlood flood-opacity="0" result="BackgroundImageFix"/>
<feColorMatrix in="SourceAlpha" type="matrix" values="0 0 0 0 0 0 0 0 0 0 0 0 0 0 0 0 0 0 127 0" result="hardAlpha"/>
<feOffset dy="4"/>
<feGaussianBlur stdDeviation="8"/>
<feComposite in2="hardAlpha" operator="out"/>
<feColorMatrix type="matrix" values="0 0 0 0 0 0 0 0 0 0 0 0 0 0 0 0 0 0 0.04 0"/>
<feBlend mode="normal" in2="BackgroundImageFix" result="effect1_dropShadow_2404_4281"/>
<feBlend mode="normal" in="SourceGraphic" in2="effect1_dropShadow_2404_4281" result="shape"/>
</filter>
</defs>
</svg>
