<svg width="48" height="48" viewBox="0 0 48 48" fill="none" xmlns="http://www.w3.org/2000/svg">
<g filter="url(#filter0_b_46_230)">
<rect width="48" height="48" rx="24" fill="#502173" fill-opacity="0.06"/>
<path d="M24 28C18.24 28 17.22 22.26 17.04 17.706C16.989 16.44 16.964 15.806 17.44 15.221C17.915 14.635 18.484 14.539 19.623 14.347C21.0698 14.11 22.5339 13.9939 24 14C25.784 14 27.253 14.157 28.377 14.347C29.516 14.539 30.085 14.635 30.561 15.221C31.037 15.807 31.011 16.44 30.961 17.706C30.781 22.26 29.761 28 24.001 28H24Z" stroke="#662D91" stroke-width="1.5"/>
<path opacity="0.5" d="M24 28V31" stroke="#662D91" stroke-width="1.5" stroke-linecap="round"/>
<path d="M27.5 34H20.5L20.84 32.304C20.8853 32.0774 21.0077 31.8735 21.1863 31.7269C21.365 31.5803 21.5889 31.5001 21.82 31.5H26.18C26.4111 31.5001 26.635 31.5803 26.8137 31.7269C26.9923 31.8735 27.1147 32.0774 27.16 32.304L27.5 34Z" stroke="#662D91" stroke-width="1.5" stroke-linecap="round" stroke-linejoin="round"/>
<path opacity="0.5" d="M31 17L31.949 17.316C32.939 17.646 33.434 17.811 33.717 18.204C34 18.597 34 19.12 34 20.162V20.235C34 21.095 34 21.526 33.793 21.878C33.586 22.23 33.209 22.439 32.457 22.858L29.5 24.5M17 17L16.051 17.316C15.061 17.646 14.566 17.811 14.283 18.204C14 18.597 14 19.12 14 20.162V20.235C14 21.095 14 21.526 14.207 21.878C14.414 22.23 14.791 22.439 15.543 22.858L18.5 24.5" stroke="#662D91" stroke-width="1.5"/>
<path d="M23.146 18.023C23.526 17.34 23.716 17 24 17C24.284 17 24.474 17.34 24.854 18.023L24.952 18.199C25.06 18.393 25.114 18.489 25.198 18.553C25.283 18.617 25.388 18.641 25.598 18.688L25.788 18.732C26.526 18.899 26.895 18.982 26.983 19.264C27.071 19.546 26.819 19.841 26.316 20.429L26.186 20.581C26.043 20.748 25.971 20.831 25.939 20.935C25.907 21.039 25.918 21.15 25.939 21.373L25.959 21.576C26.035 22.361 26.073 22.754 25.844 22.928C25.614 23.102 25.268 22.943 24.577 22.625L24.399 22.543C24.202 22.453 24.104 22.408 24 22.408C23.896 22.408 23.798 22.453 23.601 22.543L23.423 22.625C22.732 22.944 22.386 23.102 22.156 22.928C21.926 22.754 21.965 22.361 22.041 21.576L22.061 21.373C22.082 21.15 22.093 21.039 22.061 20.935C22.029 20.831 21.957 20.748 21.814 20.581L21.684 20.429C21.181 19.841 20.929 19.547 21.017 19.264C21.105 18.982 21.474 18.899 22.212 18.732L22.402 18.688C22.612 18.641 22.717 18.618 22.802 18.553C22.886 18.489 22.94 18.393 23.048 18.199L23.146 18.023Z" stroke="#662D91" stroke-width="1.5"/>
<path opacity="0.5" d="M30 34H18" stroke="#662D91" stroke-width="1.5" stroke-linecap="round"/>
</g>
<defs>
<filter id="filter0_b_46_230" x="-20.6" y="-20.6" width="89.2" height="89.2" filterUnits="userSpaceOnUse" color-interpolation-filters="sRGB">
<feFlood flood-opacity="0" result="BackgroundImageFix"/>
<feGaussianBlur in="BackgroundImageFix" stdDeviation="10.3"/>
<feComposite in2="SourceAlpha" operator="in" result="effect1_backgroundBlur_46_230"/>
<feBlend mode="normal" in="SourceGraphic" in2="effect1_backgroundBlur_46_230" result="shape"/>
</filter>
</defs>
</svg>
