<svg width="16" height="16" viewBox="0 0 16 16" fill="none" xmlns="http://www.w3.org/2000/svg">
<path opacity="0.5" d="M2.18301 10.1976C1.61634 9.46165 1.33301 9.09299 1.33301 8.00032C1.33301 6.90699 1.61634 6.53965 2.18301 5.80299C3.31434 4.33365 5.21167 2.66699 7.99967 2.66699C10.7877 2.66699 12.685 4.33365 13.8163 5.80299C14.383 6.54032 14.6663 6.90765 14.6663 8.00032C14.6663 9.09365 14.383 9.46099 13.8163 10.1976C12.685 11.667 10.7877 13.3336 7.99967 13.3336C5.21167 13.3336 3.31434 11.667 2.18301 10.1976Z" stroke="#662D91"/>
<path opacity="0.5" d="M10 8C10 8.53043 9.78929 9.03914 9.41421 9.41421C9.03914 9.78929 8.53043 10 8 10C7.46957 10 6.96086 9.78929 6.58579 9.41421C6.21071 9.03914 6 8.53043 6 8C6 7.46957 6.21071 6.96086 6.58579 6.58579C6.96086 6.21071 7.46957 6 8 6C8.53043 6 9.03914 6.21071 9.41421 6.58579C9.78929 6.96086 10 7.46957 10 8Z" stroke="#662D91"/>
<rect x="14.4102" y="1" width="1.41979" height="18.2508" rx="0.709895" transform="rotate(47.2885 14.4102 1)" fill="#662D91"/>
</svg>
