<svg width="16" height="16" viewBox="0 0 16 16" fill="none" xmlns="http://www.w3.org/2000/svg">
<path fill-rule="evenodd" clip-rule="evenodd" d="M8.00065 14.6666C11.6827 14.6666 14.6673 11.6819 14.6673 7.99992C14.6673 4.31792 11.6827 1.33325 8.00065 1.33325C4.31865 1.33325 1.33398 4.31792 1.33398 7.99992C1.33398 11.6819 4.31865 14.6666 8.00065 14.6666ZM6.64732 5.64658C6.74107 5.55295 6.86815 5.50036 7.00065 5.50036C7.13315 5.50036 7.26023 5.55295 7.35398 5.64658L9.35398 7.64658C9.44762 7.74034 9.50021 7.86742 9.50021 7.99992C9.50021 8.13242 9.44762 8.2595 9.35398 8.35325L7.35398 10.3533C7.30821 10.4024 7.25301 10.4418 7.19168 10.4691C7.13034 10.4964 7.06413 10.5111 6.997 10.5123C6.92986 10.5135 6.86318 10.5011 6.80092 10.476C6.73866 10.4509 6.6821 10.4134 6.63463 10.3659C6.58715 10.3185 6.54972 10.2619 6.52457 10.1996C6.49942 10.1374 6.48707 10.0707 6.48826 10.0036C6.48944 9.93643 6.50414 9.87023 6.53146 9.80889C6.55879 9.74756 6.59819 9.69236 6.64732 9.64658L8.29398 7.99992L6.64732 6.35325C6.55368 6.2595 6.50109 6.13242 6.50109 5.99992C6.50109 5.86742 6.55368 5.74034 6.64732 5.64658Z" fill="white"/>
</svg>
